<svg id="Group_212" data-name="Group 212" xmlns="http://www.w3.org/2000/svg" xmlns:xlink="http://www.w3.org/1999/xlink" width="24" height="24" viewBox="0 0 24 24">
  <defs>
    <clipPath id="clip-path">
      <rect id="Rectangle_156" data-name="Rectangle 156" width="24" height="24" fill="none"/>
    </clipPath>
  </defs>
  <g id="Group_211" data-name="Group 211" clip-path="url(#clip-path)">
    <g id="Group_210" data-name="Group 210">
      <g id="Group_209" data-name="Group 209" clip-path="url(#clip-path)">
        <g id="Group_208" data-name="Group 208">
          <g id="Group_207" data-name="Group 207" clip-path="url(#clip-path)">
            <path id="Path_621" data-name="Path 621" d="M13.037,25.445H12.9c-.043-.094-.122-.029-.183-.041h-.8l-.19,0H11.4c-.062.01-.14-.054-.183.04h-.234c-.035-.082-.107-.034-.161-.046a4.766,4.766,0,0,1-.867-.148c.011-.334-1.364-.635-1.542-.376-.121.009-.215-.075-.328-.091-.008-.1.028-.229-.119-.263a.153.153,0,0,0-.209.121,1.711,1.711,0,0,1-.422-.174c0-.139-.014-.274-.173-.312-.116-.028-.192.032-.2.16a2.6,2.6,0,0,1-.515-.271c.174-.315-.594-.555-.608-.327l-.14-.1c.021-.3-.162-.335-.359-.477-.076-.055-.185-.179-.258-.23-.246-.171-.729-.67-1.022-.547l-.093-.039.006-.017c-.009-.5-.311-.8-.742-.74l-.056-.058c.118-.448-.617-1.052-.844-1.414-.16-.256-.513-1.027-.842-1.005a2.1,2.1,0,0,1-.278-.561c.075-.176-.016-.717-.284-.655-.014-.016-.035-.03-.041-.048a5.635,5.635,0,0,1-.332-1.116c.056-.189.16-.392-.143-.472a5.874,5.874,0,0,1-.219-1.171c.085,0,.154-.034.143-.132s-.088-.15-.191-.149c-.037-.122.044-.261-.055-.374V13.66c.214-.087.24-.169.112-.346C.155,13.26.12,13.2.083,13.146v-.561a10.527,10.527,0,0,0,.133-1.122c-.013-.07.083-.112.048-.187a.572.572,0,0,0,.046-.327l.049-.094c.079-.291.165-.58.237-.873.113-.457.331-.876.463-1.325l.055-.091.643-1.218A12.808,12.808,0,0,1,6.368,2.93a13.107,13.107,0,0,1,6.388-1.39,13.723,13.723,0,0,1,5.57,1.752,12.479,12.479,0,0,1,4.016,4.055l.186.331.038.047L23,8.612a.1.1,0,0,0,.009.044,14.571,14.571,0,0,1,.733,2.2l.016.091c-.033.116.073.212.047.327l.047.187c.111.96.094,1.895.143,2.853a13.684,13.684,0,0,1-1.7,5.372l-.224.334-.055.089-.187.282-.047.046-.234.331c-.2.068-.429.554-.587.72-.265.279-.551.538-.817.818-.072.07-.183.091-.234.188l-.326.284-.513.383a.243.243,0,0,0-.143.128,1.432,1.432,0,0,0-.429.281,17.321,17.321,0,0,1-1.58.854,6.521,6.521,0,0,0-.747.283c-.078.027-.157.051-.232.083-.395.166-.815.249-1.22.382a1,1,0,0,0-.467.094,7.291,7.291,0,0,0-.828.112c-.13.031-.276-.044-.388.067m-2.849-11.95L6.524,17.157c-.063.063-.162.1-.038.224.59.577,1.168,1.166,1.755,1.755,1.219-1.22,2.437-2.426,3.635-3.651.164-.167.221-.127.35,0,1.154,1.16,2.313,2.314,3.467,3.475.106.106.164.141.289.014.555-.569,1.122-1.125,1.712-1.714a2.564,2.564,0,0,1-.206-.167q-1.7-1.692-3.389-3.387c-.235-.235-.236-.236,0-.474l2.363-2.363L17.67,9.666c-.576-.577-1.147-1.141-1.708-1.715-.112-.114-.166-.079-.257.013-.553.56-1.111,1.115-1.668,1.671L12.043,11.63c-.04-.048-.071-.091-.109-.128Q10.167,9.732,8.4,7.962c-.129-.13-.205-.107-.321.011C7.568,8.5,7.053,9.016,6.526,9.525c-.139.134-.116.2.007.322,1.217,1.207,2.427,2.421,3.655,3.648" transform="translate(-0.078 -1.45)" fill="#e21b1b"/>
            <path id="Path_626" data-name="Path 626" d="M405.891,173.723h-.083c-.049-.958-.032-1.893-.143-2.853a.424.424,0,0,1,.226.047Z" transform="translate(-381.896 -160.857)" fill="#fff"/>
            <path id="Path_627" data-name="Path 627" d="M.084,170.879H.216A10.526,10.526,0,0,1,.084,172Z" transform="translate(-0.079 -160.867)" fill="#fff"/>
            <path id="Path_628" data-name="Path 628" d="M.084,199.612c.037.056.072.114.112.169.128.177.1.259-.112.346v-.514" transform="translate(-0.079 -187.916)" fill="#e21b1b"/>
            <path id="Path_629" data-name="Path 629" d="M201.987,408.81h.426a.313.313,0,0,0,0,.041h-.421c0-.014,0-.028,0-.042" transform="translate(-190.152 -384.856)" fill="#e84a4a"/>
            <path id="Path_630" data-name="Path 630" d="M209.193,408.865a.319.319,0,0,1,0-.041h.374a.145.145,0,0,0,0,.041Z" transform="translate(-196.936 -384.869)" fill="#ed7474"/>
            <path id="Path_631" data-name="Path 631" d="M193.17,408.845h.327c0,.013,0,.026,0,.04h-.327a.311.311,0,0,0,0-.04" transform="translate(-181.851 -384.889)" fill="#ef7d7d"/>
            <path id="Path_632" data-name="Path 632" d="M190.221,408.649a.31.31,0,0,1,0,.04h-.187c.044-.094.122-.03.184-.04" transform="translate(-178.903 -384.693)" fill="#f6b6b6"/>
            <path id="Path_633" data-name="Path 633" d="M198.751,408.851c0-.013,0-.026,0-.04l.19,0c0,.014,0,.028,0,.042Z" transform="translate(-187.102 -384.855)" fill="#ea5656"/>
            <path id="Path_634" data-name="Path 634" d="M215.575,408.689a.146.146,0,0,1,0-.041c.062.012.14-.053.183.041Z" transform="translate(-202.943 -384.694)" fill="#f6b6b6"/>
            <path id="Path_636" data-name="Path 636" d="M24.315,301.637a2.592,2.592,0,0,1-.337-.651c.33-.022.682.749.842,1.005.227.362.962.966.844,1.414a5.169,5.169,0,0,1-.62-.737,1.153,1.153,0,0,0-.22-.285l-.042-.045a.6.6,0,0,0-.192-.283l-.1-.136a.445.445,0,0,0-.174-.283" transform="translate(-22.573 -283.349)" fill="#e21b1b"/>
            <path id="Path_637" data-name="Path 637" d="M69.508,357.808l-.083-.043a2.4,2.4,0,0,0-.431-.269l-.383-.288c-.1-.062-.153-.183-.272-.222l-.322-.248-.149-.184c.293-.123.776.375,1.022.547.074.051.182.175.258.23.2.143.381.175.359.477" transform="translate(-63.891 -335.645)" fill="#e21b1b"/>
            <path id="Path_638" data-name="Path 638" d="M391.3,122.976c.439-.033.492.913.587,1.216.069.218.46.888.145.985a14.575,14.575,0,0,0-.733-2.2" transform="translate(-368.371 -115.77)" fill="#fff"/>
            <path id="Path_639" data-name="Path 639" d="M3.814,125.188c-.247-.048.33-2.188.7-2.2-.132.449-.351.868-.463,1.325-.072.293-.157.582-.237.873" transform="translate(-3.535 -115.784)" fill="#fff"/>
            <path id="Path_640" data-name="Path 640" d="M143.706,398.584l-.094.016a1.5,1.5,0,0,0-.467-.094,5.014,5.014,0,0,1-.982-.3c.179-.259,1.554.042,1.542.376" transform="translate(-133.834 -374.783)" fill="#e21b1b"/>
            <path id="Path_641" data-name="Path 641" d="M54.454,343.884a4.79,4.79,0,0,1-.742-.74c.43-.063.732.238.742.74" transform="translate(-50.565 -323.03)" fill="#e21b1b"/>
            <path id="Path_642" data-name="Path 642" d="M16.785,101.859c-.156-.272.06-.566.2-.775.107-.156.234-.446.44-.443l-.643,1.218" transform="translate(-15.751 -94.744)" fill="#fff"/>
            <path id="Path_643" data-name="Path 643" d="M383.8,106.8a.184.184,0,0,1,.211.039.891.891,0,0,1,.219.848l-.431-.887" transform="translate(-361.312 -100.526)" fill="#fff"/>
            <path id="Path_644" data-name="Path 644" d="M98.852,378.9a2.2,2.2,0,0,1-.608-.327c.014-.228.782.012.608.327" transform="translate(-92.488 -356.311)" fill="#e21b1b"/>
            <path id="Path_645" data-name="Path 645" d="M14.671,280.823a3.243,3.243,0,0,1-.284-.655c.268-.062.358.479.284.655" transform="translate(-13.544 -263.747)" fill="#e21b1b"/>
            <path id="Path_646" data-name="Path 646" d="M275.411,392.093a.732.732,0,0,1-.747.283,6.518,6.518,0,0,1,.747-.283" transform="translate(-258.57 -369.119)" fill="#fff"/>
            <path id="Path_647" data-name="Path 647" d="M117.643,387.67l-.234-.109c.007-.127.084-.188.2-.16.159.038.177.173.173.312l-.139-.042" transform="translate(-110.53 -364.696)" fill="#e21b1b"/>
            <path id="Path_648" data-name="Path 648" d="M121.4,392.1l.139.042a1.711,1.711,0,0,0,.422.174c.043.073.153.019.191.1-.157.073-.746-.146-.752-.318" transform="translate(-114.285 -369.127)" fill="#fff"/>
            <path id="Path_649" data-name="Path 649" d="M324.657,364a.489.489,0,0,1-.513.383l.513-.383" transform="translate(-305.151 -342.675)" fill="#fff"/>
            <path id="Path_650" data-name="Path 650" d="M131.169,393.829c-.037-.083-.148-.028-.191-.1a.153.153,0,0,1,.209-.121c.147.034.111.161.118.263l-.137-.04" transform="translate(-123.304 -370.536)" fill="#e21b1b"/>
            <path id="Path_651" data-name="Path 651" d="M403.968,162.1c.1,0,.2,0,.22.135s-.069.17-.173.192c.026-.115-.079-.211-.047-.327" transform="translate(-380.292 -152.601)" fill="#fff"/>
            <path id="Path_652" data-name="Path 652" d="M5.729,252.789a.958.958,0,0,1-.143-.472c.3.08.2.283.143.472" transform="translate(-5.259 -237.533)" fill="#e21b1b"/>
            <path id="Path_653" data-name="Path 653" d="M314.808,372.717c-.113.265-.223.338-.429.281a1.432,1.432,0,0,1,.429-.281" transform="translate(-295.958 -350.878)" fill="#fff"/>
            <path id="Path_654" data-name="Path 654" d="M242.384,404.864c-.136.129-.269.276-.467.094a1,1,0,0,1,.467-.094" transform="translate(-227.742 -381.141)" fill="#fff"/>
            <path id="Path_655" data-name="Path 655" d="M379.973,100.649c.284.03.335.12.186.331l-.186-.331" transform="translate(-357.709 -94.752)" fill="#fff"/>
            <path id="Path_656" data-name="Path 656" d="M1.071,162.427a.152.152,0,0,1-.129-.186c.009-.108.08-.139.175-.142a.571.571,0,0,1-.046.327" transform="translate(-0.886 -152.602)" fill="#fff"/>
            <path id="Path_657" data-name="Path 657" d="M375.542,311.242c.045.245.007.3-.224.334l.224-.334" transform="translate(-353.327 -293.005)" fill="#fff"/>
            <path id="Path_658" data-name="Path 658" d="M1.064,227.828l-.049-.281c.1,0,.179.042.191.149s-.057.128-.142.132" transform="translate(-0.956 -214.214)" fill="#e21b1b"/>
            <path id="Path_659" data-name="Path 659" d="M366.628,324.047c0,.165.053.368-.234.331l.234-.331" transform="translate(-344.926 -305.06)" fill="#fff"/>
            <path id="Path_660" data-name="Path 660" d="M371.374,318.457a1.009,1.009,0,0,1,.014.2c-.017.137-.092.16-.2.081l.187-.282" transform="translate(-349.438 -299.797)" fill="#fff"/>
            <path id="Path_661" data-name="Path 661" d="M338.685,355.95c0,.166,0,.315-.234.188.051-.1.162-.117.234-.188" transform="translate(-318.62 -335.094)" fill="#fff"/>
            <path id="Path_662" data-name="Path 662" d="M66.327,356.24l.149.184c-.172.025-.262-.039-.242-.223l.093.039" transform="translate(-62.35 -335.33)" fill="#fff"/>
            <path id="Path_663" data-name="Path 663" d="M158.921,404.867a1.5,1.5,0,0,1,.467.094c-.2.182-.326.012-.467-.094" transform="translate(-149.609 -381.144)" fill="#fff"/>
            <path id="Path_664" data-name="Path 664" d="M87.079,372.931a2.4,2.4,0,0,1,.431.269c-.268.109-.33-.112-.431-.269" transform="translate(-81.977 -351.08)" fill="#fff"/>
            <path id="Path_665" data-name="Path 665" d="M38.361,324.846a1.153,1.153,0,0,1,.22.285c-.237.031-.23-.126-.22-.285" transform="translate(-36.109 -305.812)" fill="#fff"/>
            <path id="Path_666" data-name="Path 666" d="M29.387,312.106a.445.445,0,0,1,.174.283c-.18-.019-.228-.12-.174-.283" transform="translate(-27.646 -293.819)" fill="#fff"/>
            <path id="Path_667" data-name="Path 667" d="M75.831,364.239c.119.039.171.16.272.222-.161.012-.3,0-.272-.222" transform="translate(-71.384 -342.897)" fill="#fff"/>
            <path id="Path_668" data-name="Path 668" d="M34.4,319.255a.6.6,0,0,1,.192.283c-.235.021-.189-.147-.192-.283" transform="translate(-32.386 -300.549)" fill="#fff"/>
          </g>
        </g>
      </g>
    </g>
  </g>
</svg>
